<svg preserveAspectRatio="none" overflow="visible" style="display: block;" width="38.8472" height="40" viewBox="0 0 38.8472 40" fill="none" xmlns="http://www.w3.org/2000/svg">
<g id="Group">
<path id="Vector" fill-rule="evenodd" clip-rule="evenodd" d="M38.8295 14.2372C38.7896 14.0772 38.6897 13.9371 38.5493 13.8571L35.9481 12.2862C35.8482 12.2261 35.738 12.196 35.6279 12.196C35.4179 12.196 35.2176 12.3062 35.0977 12.4963L34.5475 13.4068L38.199 15.618L38.7594 14.7074C38.8398 14.5574 38.8695 14.3972 38.8295 14.2372Z" fill="var(--fill-0, #E8E8E8)"/>
<path id="Vector_2" fill-rule="evenodd" clip-rule="evenodd" d="M34.8975 16.9485C35.2177 17.1486 35.3278 17.5689 35.128 17.889L29.3948 27.3938C29.2646 27.604 29.0346 27.7239 28.8046 27.7239C28.6843 27.7239 28.5644 27.694 28.4543 27.624C28.1341 27.4238 28.024 27.0036 28.2242 26.6834L33.957 17.1887C34.1573 16.8586 34.5773 16.7584 34.8975 16.9485ZM25.6731 28.1144C25.603 28.2143 25.5728 28.3445 25.583 28.4643L25.8033 32.0261L29.0546 30.5554C29.1648 30.5052 29.2647 30.4253 29.3251 30.3151L37.4988 16.7885L33.8371 14.5874L25.6731 28.1144Z" fill="var(--fill-0, #E8E8E8)"/>
<path id="Vector_3" fill-rule="evenodd" clip-rule="evenodd" d="M16.2081 1.78093C16.4183 1.78093 16.5883 1.96095 16.5883 2.17113C16.5883 2.38121 16.4183 2.55133 16.2081 2.55133C15.9879 2.55133 15.8179 2.38121 15.8179 2.17113C15.8179 1.96095 15.9879 1.78093 16.2081 1.78093ZM11.966 4.59239H20.4402C20.6302 4.59239 20.7906 4.43231 20.7906 4.24211V3.75192C20.7906 3.26169 20.3905 2.85156 19.9002 2.85156H19.0595C18.6793 2.85156 18.3692 2.55133 18.3692 2.17113C18.3692 0.980473 17.3988 0 16.2081 0C15.0074 0 14.037 0.980473 14.037 2.17113C14.037 2.55133 13.7268 2.85156 13.3467 2.85156H12.5162C12.0159 2.85156 11.6158 3.26169 11.6158 3.75192V4.24211C11.6158 4.43231 11.7758 4.59239 11.966 4.59239Z" fill="var(--fill-0, #E8E8E8)"/>
<path id="Vector_4" fill-rule="evenodd" clip-rule="evenodd" d="M31.3059 38.2193C31.3059 38.5994 31.0058 38.9094 30.6256 38.9094H1.78094C1.40088 38.9094 1.1007 38.5994 1.1007 38.2193V6.35328C1.1007 5.97298 1.40088 5.67289 1.78094 5.67289H11.0055C10.6355 5.41277 10.3653 5.02253 10.2752 4.57235H2.24115C1.01054 4.57235 0 5.57285 0 6.81345V37.7588C0 38.9995 1.01054 40 2.24115 40H30.1651C31.3961 40 32.4063 38.9995 32.4063 37.7588V27.8641L31.3059 29.685V38.2193Z" fill="var(--fill-0, #E8E8E8)"/>
<path id="Vector_5" fill-rule="evenodd" clip-rule="evenodd" d="M25.5725 11.4056H28.9744L25.5725 8.01392V11.4056Z" fill="var(--fill-0, #E8E8E8)"/>
<path id="Vector_6" fill-rule="evenodd" clip-rule="evenodd" d="M25.0626 5.70282C25.0928 5.71281 25.1231 5.71281 25.1528 5.72285C25.2327 5.75286 25.3131 5.813 25.3828 5.87294L31.1058 11.6059C31.1657 11.6659 31.2262 11.7459 31.2559 11.836C31.2656 11.8661 31.2656 11.896 31.2759 11.936C31.2861 11.986 31.3061 12.036 31.3061 12.0962V16.1281L32.4064 14.3072V6.81345C32.4064 5.57285 31.3962 4.57235 30.1653 4.57235H22.1314C22.0413 5.02253 21.7713 5.41277 21.401 5.67289H24.8926C24.9525 5.67289 25.0027 5.68289 25.0626 5.70282Z" fill="var(--fill-0, #E8E8E8)"/>
<path id="Vector_7" fill-rule="evenodd" clip-rule="evenodd" d="M23.8921 17.3489L14.8377 26.2432C14.7076 26.3735 14.5375 26.4434 14.3575 26.4434H14.3474C14.1574 26.4434 13.9872 26.3635 13.8572 26.2333L8.43443 20.4703C8.31441 20.3404 8.24433 20.1603 8.24433 19.9801C8.25432 19.8001 8.33443 19.63 8.4645 19.4999L11.5861 16.5585C11.7161 16.4384 11.8863 16.3684 12.0763 16.3783C12.2563 16.3783 12.4265 16.4583 12.5565 16.5885L14.4974 18.6495L19.9302 13.3169C20.2002 13.0467 20.6305 13.0467 20.901 13.3169L23.9023 16.3783C24.0325 16.5084 24.1021 16.6885 24.1021 16.8687C24.1021 17.0487 24.0222 17.2187 23.8921 17.3489ZM29.9353 18.3994V12.7765H24.8926C24.5125 12.7765 24.2123 12.4663 24.2123 12.0963V7.03369H2.47152V37.5392H29.9353V31.5959C29.8354 31.6758 29.735 31.7562 29.6151 31.8059L25.4632 33.687C25.3731 33.7269 25.2727 33.7469 25.1728 33.7469C25.0529 33.7469 24.9325 33.7172 24.8229 33.647C24.6328 33.5271 24.5022 33.3268 24.4925 33.1071L24.2225 28.5443C24.1923 28.1443 24.2922 27.754 24.5022 27.4039L29.9353 18.3994Z" fill="var(--fill-0, #E8E8E8)"/>
<path id="Vector_8" fill-rule="evenodd" clip-rule="evenodd" d="M14.9577 20.12C14.8276 20.25 14.6476 20.3101 14.4674 20.3101C14.2773 20.3101 14.1072 20.2299 13.9772 20.1L12.0261 18.0289L9.90519 20.0299L14.3774 24.7823L22.4515 16.8484L20.4004 14.7673L14.9577 20.12Z" fill="var(--fill-0, #E8E8E8)"/>
</g>
</svg>
